<svg id="Layer_1" data-name="Layer 1" xmlns="http://www.w3.org/2000/svg" xmlns:xlink="http://www.w3.org/1999/xlink" viewBox="0 0 1080 1920"><defs><style>.cls-1{fill:#754c29;}.cls-2{fill:#f8fcff;}.cls-3{fill:#8ca829;}.cls-4{fill:#616f39;}.cls-5{fill:#a7d129;}.cls-6{fill:#8b5e3c;}.cls-7{fill:#fbb040;}.cls-8{fill:none;stroke:#fbb040;stroke-miterlimit:10;stroke-width:8px;}.cls-9{fill:#1b1919;}.cls-10{fill:#231f20;}.cls-11{fill:#603913;}.cls-12{fill:#ff8364;}.cls-13{fill:#191818;}.cls-14{fill:#f15a29;}.cls-15{fill:#414042;}.cls-16{clip-path:url(#clip-path);}.cls-17{fill:#240041;}.cls-18{fill:#ff4057;}.cls-19{clip-path:url(#clip-path-2);}</style><clipPath id="clip-path"><ellipse id="_Ellipse_" data-name="&lt;Ellipse&gt;" class="cls-1" cx="189.63" cy="1553.6" rx="11.24" ry="13.85"/></clipPath><clipPath id="clip-path-2"><ellipse id="_Ellipse_2" data-name="&lt;Ellipse&gt;" class="cls-1" cx="95.25" cy="1447.63" rx="14.93" ry="18.4"/></clipPath></defs><title>Mr Paul 2</title><rect class="cls-2" x="-19.74" y="-24.54" width="1113.23" height="1474.78"/><polygon class="cls-3" points="885.86 1561.93 1114.75 1454.21 1114.75 1636.95 885.86 1561.93"/><path class="cls-4" d="M470.86,1324.38s109.64-165.9,180.81-163.5c26-5.77,41.35,7.21,85.59,46.16s101,85.59,101,85.59,95.69,71.17,114.45,76c24,10.58,144.74,61.55,168.3,57.7l-6.25,32.7L846.9,1577.32Z"/><path class="cls-5" d="M1113.09,1604.48c-9.67-3.27-37.87-12.84-49.53-16.86-16.88-5.69-42.06-14.52-72.11-26.42C823,1494.46,743.86,1427.09,574,1323.75c-143.05-87-214.58-130.55-280.12-144.87-133.74-29.22-254.39,1.44-334.9,31.78v865.56H1114.75v-304h-1.66Z"/><path class="cls-6" d="M122.76,1139.37h14a0,0,0,0,1,0,0v81.23a1.77,1.77,0,0,1-1.77,1.77H124.53a1.77,1.77,0,0,1-1.77-1.77v-81.23A0,0,0,0,1,122.76,1139.37Z"/><path class="cls-6" d="M229.5,1146.42h12a0,0,0,0,1,0,0v43.38a1.77,1.77,0,0,1-1.77,1.77h-8.47a1.77,1.77,0,0,1-1.77-1.77v-43.38A0,0,0,0,1,229.5,1146.42Z"/><polygon class="cls-4" points="238.04 1103.85 204 1160.94 266.58 1160.94 238.04 1103.85"/><polygon class="cls-4" points="238.46 1065.71 204.42 1122.8 267 1122.8 238.46 1065.71"/><polygon class="cls-4" points="132.98 1088.26 76.3 1183.34 180.53 1183.34 132.98 1088.26"/><polygon class="cls-4" points="133.68 1024.73 77 1119.81 181.23 1119.81 133.68 1024.73"/><circle class="cls-7" cx="881.85" cy="212.19" r="73.59"/><line class="cls-8" x1="881.85" y1="123.34" x2="881.85" y2="80.17"/><line class="cls-8" x1="931.99" y1="136.69" x2="965.91" y2="109.99"/><line class="cls-8" x1="1005.64" y1="172.61" x2="963.56" y2="182.21"/><line class="cls-8" x1="794.74" y1="325.6" x2="821.77" y2="291.94"/><line class="cls-8" x1="878.54" y1="351.93" x2="878.54" y2="308.77"/><line class="cls-8" x1="1006.49" y1="257.77" x2="964.41" y2="248.17"/><line class="cls-8" x1="816.66" y1="136.69" x2="782.73" y2="109.99"/><line class="cls-8" x1="965.91" y1="330.35" x2="931.99" y2="303.66"/><line class="cls-8" x1="746.75" y1="179.56" x2="788.01" y2="192.22"/><line class="cls-8" x1="753.04" y1="261" x2="792.77" y2="244.14"/><path class="cls-9" d="M227.32,572.11s28.47-7.21,44,10c0,0,10.17-26.62,45.85-21.44,0,0-18.12-18.78-47,10.39C270.21,571,243.77,552.33,227.32,572.11Z"/><path class="cls-9" d="M73.63,464.34s28.47-7.21,44,10c0,0,10.17-26.62,45.85-21.44,0,0-18.12-18.78-47,10.39C116.52,463.26,90.08,444.56,73.63,464.34Z"/><path class="cls-9" d="M518.25,482.75s13.78-3.49,21.3,4.83c0,0,4.92-12.89,22.2-10.38,0,0-8.77-9.09-22.73,5C539,482.23,526.22,473.17,518.25,482.75Z"/><path class="cls-9" d="M818.47,888.06s43.66-11.06,67.48,15.31c0,0,15.59-40.83,70.31-32.89,0,0-27.78-28.81-72,15.93C884.24,886.42,843.7,857.73,818.47,888.06Z"/><path class="cls-9" d="M118.55,778.26s39.28-9.95,60.7,13.77c0,0,14-36.73,63.25-29.58,0,0-25-25.92-64.78,14.33C177.72,776.78,141.25,751,118.55,778.26Z"/><path class="cls-10" d="M868,1682.1s-21.75,69,14.5,170.06c0,0,11.55-118,15-118.87s16.76,82.46,14.5,121.42c0,0,38.51-74.07,19.48-174.88Z"/><path class="cls-11" d="M988.41,1499s-9.67,59.35-57.24,121.93c-.37.48-1.29,12.52-1.41,13.11-2.74,13.78,2,47.09,2,47.09s-31.94,11.1-63.43,2.27c0,0,6.57-47.57,0-63.43s-32.85,43.49-17.22,94.24c0,0-30.94-48.65-6.79-107.71,4.11-10.06,12.29-20.54,22.22-25,3.16-1.41,4.76-1.65,5.55-1.49a37.5,37.5,0,0,0,7.47,1h9.86a40.06,40.06,0,0,0,8.44-.9l16.62-3.58a17.52,17.52,0,0,1,9,.45h0c4,1.3,8,2.9,11.47.48C944.91,1570.59,965.19,1551.22,988.41,1499Z"/><path class="cls-12" d="M929.76,1634c.12-.59,1-12.63,1.41-13.11a329.36,329.36,0,0,0,21.07-31.3q-3.69-7.54-7.4-15.07-.91-1.86-1.8-3.74c-3.13,3-6.05,2.22-8.24,3.74-3.48,2.42-7.21,3.7-11.24,2.41a17.52,17.52,0,0,0-9-.45l-16.62,3.58a40.06,40.06,0,0,1-8.44.9h-9.86a37.5,37.5,0,0,1-7.47-1c-.8-.16-2.39.07-5.55,1.49-9.93,4.43-18.11,14.9-22.22,25a123.36,123.36,0,0,0-7.75,27.72H854c5.19-14.09,11.58-21,14.38-14.25,6.57,15.86,0,63.43,0,63.43,31.49,8.83,63.43-2.27,63.43-2.27S927,1647.83,929.76,1634Z"/><circle class="cls-13" cx="883.07" cy="1510" r="14.65"/><path class="cls-13" d="M949.49,1515.5a14.65,14.65,0,0,0-11.22-14.24,14.65,14.65,0,0,0-21.1-18.84,14.56,14.56,0,0,0-6-2.24,14.65,14.65,0,0,0-27.27-2.11,14.64,14.64,0,0,0-23.72,10.64,14.65,14.65,0,0,0-11.07,19.83,24.39,24.39,0,0,0,9.54,39.59,14.8,14.8,0,0,0,1.54-.08,14.65,14.65,0,0,0,21.08,12.3,14.65,14.65,0,0,0,23,4.41,14.65,14.65,0,0,0,19.27-10.94,14.8,14.8,0,0,0,1.64.09A14.65,14.65,0,0,0,936.55,1530,14.65,14.65,0,0,0,949.49,1515.5Zm-69-4.38c-.43,0-.87-.06-1.31-.06a14.62,14.62,0,0,0-4.62.75,14.57,14.57,0,0,0,2.82-7.83,14.54,14.54,0,0,0,3.07-.89,14.64,14.64,0,0,0,0,8Z"/><path class="cls-13" d="M958.84,1513.36a14.65,14.65,0,0,0-11.45-25.77,14.65,14.65,0,0,0-12.55-22.2,14.76,14.76,0,0,0-1.93.13,14.64,14.64,0,0,0-21.12-4.73,14.65,14.65,0,0,0-25.79,2.55,14.65,14.65,0,0,0-25.3,5.5,14.65,14.65,0,0,0-23.3,16,14.65,14.65,0,0,0-8.3,22.77,14.65,14.65,0,0,0,0,28.17A14.65,14.65,0,0,0,841,1559h.29a14.65,14.65,0,0,0,21.5,15.7,14.65,14.65,0,0,0,28.05,4.78,14.65,14.65,0,0,0,26-4.71,14.65,14.65,0,0,0,21.26-16.28,14.65,14.65,0,0,0,17.15-20.32,14.65,14.65,0,0,0,3.64-24.76ZM909.69,1558a14.65,14.65,0,0,0-20.46,7,14.64,14.64,0,0,0-19-4.2,14.65,14.65,0,0,0-14.61-13.61h-.29a14.66,14.66,0,0,0-10.33-17,14.63,14.63,0,0,0,0-17.13,14.65,14.65,0,0,0,9.83-18.85A14.67,14.67,0,0,0,865.35,1484a14.64,14.64,0,0,0,23-5.67,14.64,14.64,0,0,0,19.6,2.55,14.61,14.61,0,0,0,14.16,6.45,14.64,14.64,0,0,0,14.81,7.23,14.65,14.65,0,0,0,3.2,18.82,14.65,14.65,0,0,0-3.92,17.47,14.65,14.65,0,0,0-8.52,16.91,14.65,14.65,0,0,0-18,10.24Z"/><polygon class="cls-1" points="175.75 1638.18 178.8 1659.98 181.41 1638.89 175.75 1638.18"/><polygon class="cls-1" points="194.71 1638.49 197.43 1659.92 200.4 1638.24 194.71 1638.49"/><path class="cls-4" d="M139.7,1549.1c-.39-1.06-.56-1.65-.56-1.65A5.41,5.41,0,0,0,139.7,1549.1Z"/><path class="cls-4" d="M217.46,1609.43c.79,2.58,1.27,4.21,1.27,4.21A12,12,0,0,0,217.46,1609.43Z"/><path class="cls-4" d="M204,1576.35C199.2,1573,192.5,1566,192.5,1566l-4.49,5.71h0l4.49-5.71h-6.6a9.55,9.55,0,0,1-6.77,5.71h-6.79c-10.12-2-29.07-15.49-32.63-22.62,2,5.52,10.15,23.75,32.63,37.87v33.64h31.4V1592a20.36,20.36,0,0,1,5.35,4.15,68.1,68.1,0,0,1,8.37,13.28C214.63,1600.23,207.76,1579,204,1576.35Z"/><path class="cls-1" d="M139.7,1549.1c-.39-1.06-.56-1.65-.56-1.65A5.41,5.41,0,0,0,139.7,1549.1Z"/><path class="cls-1" d="M217.46,1609.43c.79,2.58,1.27,4.21,1.27,4.21A12,12,0,0,0,217.46,1609.43Z"/><path class="cls-1" d="M204,1576.35C199.2,1573,192.5,1566,192.5,1566h-6.6a9.55,9.55,0,0,1-6.77,5.71h-6.79c-10.12-2-29.07-15.49-32.63-22.62,2,5.52,10.15,23.75,32.63,37.87v33.64h31.4V1592a20.36,20.36,0,0,1,5.35,4.15,68.1,68.1,0,0,1,8.37,13.28C214.63,1600.23,207.76,1579,204,1576.35Z"/><path class="cls-14" d="M204,1576.35a75,75,0,0,1-8.23-7.07H183.65a10,10,0,0,1-4.53,2.43h-6.79a27,27,0,0,1-4.82-1.51v13.52q2.29,1.65,4.82,3.24v33.64h31.4V1592a20.36,20.36,0,0,1,5.35,4.15l.35.44,2.84-2.87C209.41,1585.65,206.18,1577.86,204,1576.35Z"/><path class="cls-15" d="M172.51,1619.77v22.73h14.1V1634h4.1v8.45h13.2v-22.73Z"/><ellipse id="_Ellipse_3" data-name="&lt;Ellipse&gt;" class="cls-1" cx="189.63" cy="1553.6" rx="11.24" ry="13.85"/><g class="cls-16"><circle class="cls-10" cx="189.63" cy="1544.3" r="17.4"/></g><path class="cls-10" d="M202.51,1549.09a9.89,9.89,0,0,1-.76-7,3.39,3.39,0,0,0-3.39-3.39h-.06a3.39,3.39,0,0,0-5.35-3.34,3.39,3.39,0,0,0-6.67.19,3.39,3.39,0,0,0-6.17,2.69,9.2,9.2,0,0,0-3.52,15c0,.11,0,.22,0,.33a3.36,3.36,0,0,1-.13,2.77,3.39,3.39,0,0,0,3.39,3.39h.28a3.38,3.38,0,0,0,4.77,2.06,3.38,3.38,0,0,0,2.91.4,3.38,3.38,0,0,0,5.21-.63,3.36,3.36,0,0,0,2.51-.13,3.38,3.38,0,0,0,4.74-2.47h.06a6.65,6.65,0,0,0,2.21-9.88Zm-13.43,7.44a3.37,3.37,0,0,0-3.87-.58,3.37,3.37,0,0,0-1.87-.56h-.28c0-.09-.06-.18-.09-.27a5.52,5.52,0,0,1,.37-6.86,1.39,1.39,0,0,1,1.06-1.77l.41,0a3.39,3.39,0,0,0,3.39-3.39c0-.11,0-.22,0-.33a3.4,3.4,0,0,0,1-.69,3.39,3.39,0,0,0,1.3.83,3.38,3.38,0,0,0,3.72,1.87,2.46,2.46,0,0,1,.8,3.46,3.39,3.39,0,0,0,2,3.07c0,.11,0,.21,0,.32A2.54,2.54,0,0,1,197,1555h-.06a3.37,3.37,0,0,0-1.41.31,3.38,3.38,0,0,0-4.27,1.27,3.36,3.36,0,0,0-2.14,0Z"/><path class="cls-1" d="M121.34,1477.71c-11-7.34-17.4-8.85-17.4-8.85H86.28s-10,2.85-17.4,8.85c-4.93,4-16.45,18.68-13.65,39.88,3.25,24.62,8.83,33.72,8.83,33.72s-6.29-28,3.21-45.77S75,1494.84,75,1494.84s4.82,11.78,3.48,19.54-2.41,17.4-2.41,17.4l19,.54,19-.54s-1.07-9.64-2.41-17.4,3.48-19.54,3.48-19.54-1.74-7.09,7.76,10.71,19.41,56,19.41,56-3.68-18.8-7.36-43.93C132,1497.07,127.24,1481.64,121.34,1477.71Z"/><path class="cls-10" d="M87.22,1461.68s.18,9.46-2.68,13.2h21.68s-4.19-9.19-3.21-12.4Z"/><polygon class="cls-1" points="81.3 1605.5 94.69 1655.28 94.69 1608.18 81.3 1605.5"/><polygon class="cls-1" points="112.94 1605.03 103.74 1655.75 99.82 1608.81 112.94 1605.03"/><path class="cls-17" d="M76.56,1523s-23.78,35.38-1.58,97.47a116.15,116.15,0,0,0,44.36,2.23c2.92-9.13,5.27-21.71,6.32-36.75,1.44-20.68-.56-46-14.31-64.42C111.35,1521.54,88.66,1525.76,76.56,1523Z"/><path class="cls-18" d="M135.69,1522.32q-.35-2.32-.7-4.73c-3-20.52-7.75-36-13.65-39.88-11-7.34-17.4-8.85-17.4-8.85H86.28s-10,2.85-17.4,8.85c-4.93,4-16.45,18.68-13.65,39.88q.38,2.91.81,5.53h6.37a47.72,47.72,0,0,1,4.87-17.58c6.53-12.24,7.75-12.71,7.88-11.81a18,18,0,0,0,.74,3.42c1.32,3.82,3.59,11.58,2.62,17.22-.69,4-2,8.63-5.57,15.59l42.73-1.34c-3.28-10.24-3.28-10.24-4-14.25-1-5.64,1.3-13.39,2.62-17.22a18,18,0,0,0,.74-3.42c.12-.9,1.34-.43,7.88,11.81a141.35,141.35,0,0,1,7.23,16.77Z"/><ellipse id="_Ellipse_4" data-name="&lt;Ellipse&gt;" class="cls-1" cx="95.25" cy="1447.63" rx="14.93" ry="18.4"/><g class="cls-19"><circle class="cls-10" cx="95.25" cy="1435.28" r="23.11"/></g><path class="cls-10" d="M112,1445.54a5.79,5.79,0,0,0-2.65-4.87,5.79,5.79,0,0,0-1.19-7.31,5.8,5.8,0,0,0-7.43-5,5.8,5.8,0,0,0-8-3.41,5.8,5.8,0,0,0-7.81-.05,5.8,5.8,0,0,0-7.87,3.46,5.8,5.8,0,0,0-3.33,8.51,26.32,26.32,0,0,1-2.77,13,5.8,5.8,0,0,0,3.52,5.33,5.79,5.79,0,0,0,.48,8.35,5.8,5.8,0,0,0,2,7,5.8,5.8,0,0,0,6.79,7,5.8,5.8,0,0,0,10.81,3.7,5.8,5.8,0,0,0,8.73-4.58,5.8,5.8,0,0,0,3-5.06c0-.12,0-.25,0-.37a129.15,129.15,0,0,1,2.87-9.54,5.77,5.77,0,0,0-.79-2.92,51,51,0,0,1,3.73-13.23Zm-19.48,27.66-.14.25-.14-.08Zm1.85-1.87a5.79,5.79,0,0,0,.29-.53q0,.19,0,.38Z"/></svg>